<svg width="35" height="35" viewBox="0 0 35 35" fill="none" xmlns="http://www.w3.org/2000/svg">
<g clip-path="url(#clip0_52_3474)">
<path fill-rule="evenodd" clip-rule="evenodd" d="M17.5 2.91663C9.44558 2.91663 2.91663 9.44558 2.91663 17.5C2.91663 20.2562 3.68225 22.8375 5.01371 25.0366L3.71288 29.4583C3.63819 29.7122 3.63327 29.9815 3.69865 30.2379C3.76403 30.4943 3.89728 30.7284 4.0844 30.9155C4.27152 31.1026 4.5056 31.2359 4.76203 31.3013C5.01845 31.3666 5.28776 31.3617 5.54163 31.287L9.96329 29.9862C12.2364 31.3615 14.8432 32.0869 17.5 32.0833C25.5543 32.0833 32.0833 25.5543 32.0833 17.5C32.0833 9.44558 25.5543 2.91663 17.5 2.91663ZM14.2012 20.8002C17.1514 23.7489 19.9675 24.1383 20.962 24.1748C22.4743 24.2302 23.9472 23.0752 24.5204 21.735C24.5927 21.5682 24.619 21.3851 24.5964 21.2048C24.5738 21.0245 24.5033 20.8535 24.392 20.7098C23.5929 19.6889 22.5123 18.9554 21.4564 18.2262C21.236 18.0738 20.9651 18.0126 20.7005 18.0556C20.436 18.0986 20.1983 18.2423 20.0375 18.4566L19.1625 19.791C19.1165 19.8627 19.0448 19.9142 18.9621 19.9348C18.8794 19.9554 18.792 19.9436 18.7177 19.9018C18.1241 19.562 17.2593 18.9845 16.6381 18.3633C16.0168 17.742 15.4743 16.9166 15.1695 16.361C15.1318 16.2904 15.1208 16.2085 15.1388 16.1305C15.1568 16.0525 15.2024 15.9836 15.2673 15.9366L16.6147 14.9362C16.8071 14.769 16.9312 14.5369 16.9634 14.2841C16.9957 14.0314 16.9339 13.7755 16.7897 13.5654C16.1364 12.6087 15.3752 11.3925 14.2712 10.586C14.1287 10.4828 13.9618 10.4184 13.7869 10.3992C13.612 10.38 13.4352 10.4067 13.2737 10.4766C11.932 11.0512 10.7712 12.5241 10.8266 14.0393C10.8631 15.0339 11.2525 17.85 14.2012 20.8002Z" fill="#6D2932"/>
</g>
<defs>
<clipPath id="clip0_52_3474">
<rect width="35" height="35" fill="white"/>
</clipPath>
</defs>
</svg>
