<svg width="35" height="35" viewBox="0 0 35 35" fill="none" xmlns="http://www.w3.org/2000/svg">
<path d="M18.9991 2.91818C20.0633 2.91409 21.1275 2.92479 22.1914 2.95026L22.4743 2.96047C22.801 2.97213 23.1233 2.98672 23.5127 3.00422C25.0643 3.07713 26.1231 3.32213 27.052 3.68234C28.0145 4.05276 28.8254 4.55443 29.6362 5.36526C30.3776 6.09385 30.9514 6.97518 31.3177 7.94797C31.6779 8.87693 31.9229 9.93713 31.9958 11.4888C32.0133 11.8767 32.0279 12.2005 32.0395 12.5271L32.0483 12.8101C32.0742 13.8735 32.0854 14.9372 32.0818 16.0009L32.0833 17.0888V18.9992C32.0869 20.0634 32.0757 21.1276 32.0497 22.1915L32.041 22.4744C32.0293 22.8011 32.0147 23.1234 31.9972 23.5128C31.9243 25.0644 31.6764 26.1232 31.3177 27.0521C30.9526 28.026 30.3786 28.908 29.6362 29.6363C28.907 30.3776 28.0252 30.9514 27.052 31.3178C26.1231 31.678 25.0643 31.923 23.5127 31.9959C23.1233 32.0134 22.801 32.028 22.4743 32.0396L22.1914 32.0484C21.1275 32.0743 20.0633 32.0855 18.9991 32.0819L17.9112 32.0834H16.0022C14.938 32.087 13.8738 32.0758 12.8099 32.0498L12.527 32.0411C12.1808 32.0285 11.8347 32.014 11.4887 31.9973C9.93703 31.9244 8.87828 31.6765 7.94786 31.3178C6.97469 30.9522 6.09321 30.3783 5.36515 29.6363C4.62293 28.9076 4.04861 28.0257 3.68224 27.0521C3.32203 26.1232 3.07703 25.0644 3.00411 23.5128C2.98787 23.1667 2.97329 22.8206 2.96036 22.4744L2.95307 22.1915C2.92618 21.1276 2.91403 20.0634 2.91661 18.9992V16.0009C2.91254 14.9372 2.92324 13.8735 2.9487 12.8101L2.9589 12.5271C2.97057 12.2005 2.98515 11.8767 3.00265 11.4888C3.07557 9.93568 3.32057 8.87838 3.68078 7.94797C4.04736 6.97471 4.62281 6.09362 5.36661 5.36672C6.09417 4.62406 6.9751 4.04922 7.94786 3.68234C8.87828 3.32213 9.93557 3.07713 11.4887 3.00422L12.527 2.96047L12.8099 2.95318C13.8733 2.9263 14.9371 2.91415 16.0008 2.91672L18.9991 2.91818ZM17.4999 10.2098C16.5338 10.1962 15.5746 10.3747 14.678 10.7349C13.7815 11.0952 12.9655 11.6301 12.2774 12.3085C11.5894 12.9868 11.043 13.7952 10.6701 14.6866C10.2972 15.578 10.1052 16.5345 10.1052 17.5008C10.1052 18.467 10.2972 19.4236 10.6701 20.315C11.043 21.2064 11.5894 22.0147 12.2774 22.6931C12.9655 23.3715 13.7815 23.9063 14.678 24.2666C15.5746 24.6269 16.5338 24.8054 17.4999 24.7917C19.4338 24.7917 21.2885 24.0235 22.6559 22.656C24.0234 21.2886 24.7916 19.4339 24.7916 17.5001C24.7916 15.5662 24.0234 13.7115 22.6559 12.3441C21.2885 10.9766 19.4338 10.2098 17.4999 10.2098ZM17.4999 13.1265C18.0811 13.1158 18.6586 13.221 19.1986 13.436C19.7386 13.651 20.2304 13.9714 20.6452 14.3786C21.0601 14.7857 21.3896 15.2715 21.6145 15.8074C21.8395 16.3434 21.9554 16.9188 21.9555 17.5C21.9556 18.0813 21.8399 18.6567 21.6151 19.1928C21.3903 19.7288 21.061 20.2147 20.6463 20.622C20.2316 21.0293 19.7399 21.3499 19.2 21.565C18.66 21.7802 18.0826 21.8856 17.5014 21.8751C16.3411 21.8751 15.2283 21.4141 14.4078 20.5936C13.5873 19.7732 13.1264 18.6604 13.1264 17.5001C13.1264 16.3397 13.5873 15.2269 14.4078 14.4065C15.2283 13.586 16.3411 13.1251 17.5014 13.1251L17.4999 13.1265ZM25.1562 8.02234C24.6857 8.04117 24.2408 8.24131 23.9146 8.58084C23.5884 8.92037 23.4062 9.37296 23.4062 9.8438C23.4062 10.3146 23.5884 10.7672 23.9146 11.1068C24.2408 11.4463 24.6857 11.6464 25.1562 11.6653C25.6397 11.6653 26.1033 11.4732 26.4452 11.1313C26.7871 10.7895 26.9791 10.3258 26.9791 9.84234C26.9791 9.35888 26.7871 8.89521 26.4452 8.55335C26.1033 8.21148 25.6397 8.01943 25.1562 8.01943V8.02234Z" fill="#6D2932"/>
</svg>
